<svg xmlns="http://www.w3.org/2000/svg" xmlns:xlink="http://www.w3.org/1999/xlink" width="314" height="132" fill="none" viewBox="0 0 314 132">
  <path fill="url(#a)" d="M0 0h132v132H0z"/>
  <path fill="#C6C6C6" d="M126.518 117.284h2.282l2.24 6.328-.84 3.64-3.682-9.968Zm7-.308.252 1.386-3.108 7.336-.084.238a6.089 6.089 0 0 0-.168.588 4.49 4.49 0 0 0-.084.728h-.126l-.392-1.666 3.584-8.61h.126Zm0 .014 3.08 6.804-.672 3.458-3.374-7.462.966-2.8Zm5.418.294-2.632 8.414-.07.252a4.631 4.631 0 0 0-.126.602 3.578 3.578 0 0 0-.042.7h-.14l-.392-1.386 2.45-8.582h.952Zm-1.218.924c.075-.28.051-.495-.07-.644a.57.57 0 0 0-.462-.224h-.126v-.14h2.926v.14h-.112c-.215 0-.448.07-.7.21-.252.131-.429.35-.532.658h-.924Zm-8.568 0h-2.282c-.121-.308-.303-.527-.546-.658-.243-.14-.471-.21-.686-.21h-.112v-.14h4.27v.14h-.126a.64.64 0 0 0-.476.224c-.131.149-.145.364-.042.644Zm13.706.392v8.4h-2.016v-8.4h2.016Zm3.276 7.84.322.56h-3.626v-.56h3.304Zm-.476-3.878v.56h-2.828v-.56h2.828Zm.63-3.962v.56h-3.458v-.56h3.458Zm.742 5.824-.532 2.576h-2.422l.434-.56c.401 0 .756-.079 1.064-.238.317-.168.588-.401.812-.7.224-.308.396-.667.518-1.078h.126Zm-1.372-1.33v1.232h-.14v-.112a1.07 1.07 0 0 0-.294-.77c-.187-.205-.444-.313-.77-.322v-.028h1.204Zm0-1.736v1.232h-1.204v-.028c.326-.009.583-.117.77-.322.196-.215.294-.476.294-.784v-.098h.14Zm.63-2.226v1.484h-.14v-.126c0-.411-.112-.733-.336-.966-.215-.233-.528-.355-.938-.364v-.028h1.414Zm0-.742v.336l-1.47-.126c.27 0 .555-.023.854-.07.298-.056.504-.103.616-.14Zm-5.418 7.728.07.882h-1.036v-.14h.182c.205 0 .378-.07.518-.21a.784.784 0 0 0 .238-.532h.028Zm0-6.636h-.028a.748.748 0 0 0-.238-.532.704.704 0 0 0-.518-.21h-.182v-.14h1.036l-.07.882Zm8.351-.882h2.324c.364 0 .733.028 1.106.084.374.056.714.159 1.022.308.308.149.556.359.742.63.187.271.28.625.28 1.064 0 .355-.074.658-.224.91a1.654 1.654 0 0 1-1.316.826c.411.028.78.135 1.106.322.327.187.588.439.784.756.206.308.308.677.308 1.106 0 .439-.093.812-.28 1.12a2.247 2.247 0 0 1-.77.742 3.682 3.682 0 0 1-1.134.406 6.77 6.77 0 0 1-1.33.126h-1.26v-.56h.672c.336 0 .64-.061.91-.182a1.51 1.51 0 0 0 .672-.63c.168-.289.252-.672.252-1.148 0-.327-.051-.611-.154-.854a1.394 1.394 0 0 0-.406-.602 1.66 1.66 0 0 0-.63-.35 2.686 2.686 0 0 0-.798-.112v-.126c.206 0 .402-.028.588-.084a1.33 1.33 0 0 0 .476-.28c.14-.131.248-.299.322-.504.084-.205.126-.453.126-.742 0-.625-.144-1.059-.434-1.302-.289-.252-.653-.378-1.092-.378h-1.736c0-.009-.014-.056-.042-.14a8.69 8.69 0 0 0-.056-.266l-.028-.14Zm1.456 0v8.4h-1.988v-8.4h1.988Zm-1.946 7.518V127h-.952v-.14h.154c.224 0 .406-.07.546-.21a.675.675 0 0 0 .21-.532h.042Zm0-6.636h-.042a.63.63 0 0 0-.21-.532.739.739 0 0 0-.546-.21h-.154v-.14h.952v.882Zm16.164-2.282c1.101 0 2.053.201 2.856.602a4.237 4.237 0 0 1 1.848 1.694c.438.728.658 1.596.658 2.604s-.22 1.881-.658 2.618c-.43.728-1.046 1.293-1.848 1.694-.803.392-1.755.588-2.856.588h-3.332l-.014-.588h3.178c.672 0 1.25-.173 1.736-.518.485-.355.858-.854 1.12-1.498.261-.644.392-1.409.392-2.296 0-.887-.131-1.652-.392-2.296-.262-.644-.635-1.139-1.12-1.484-.486-.355-1.064-.532-1.736-.532h-3.318v-.588h3.486Zm-1.904 0v9.8h-2.1v-9.8h2.1Zm-2.058 8.778V127h-1.12v-.14h.182a.839.839 0 0 0 .616-.252.917.917 0 0 0 .28-.63h.042Zm0-7.756h-.042a.817.817 0 0 0-.266-.616.865.865 0 0 0-.63-.266h-.168l-.014-.14h1.12v1.022Zm13.083.378v8.4h-2.016v-8.4h2.016Zm3.276 7.84.322.56h-3.626v-.56h3.304Zm-.476-3.878v.56h-2.828v-.56h2.828Zm.63-3.962v.56h-3.458v-.56h3.458Zm.742 5.824-.532 2.576h-2.422l.434-.56c.401 0 .756-.079 1.064-.238.317-.168.588-.401.812-.7.224-.308.397-.667.518-1.078h.126Zm-1.372-1.33v1.232h-.14v-.112a1.07 1.07 0 0 0-.294-.77c-.187-.205-.443-.313-.77-.322v-.028h1.204Zm0-1.736v1.232h-1.204v-.028c.327-.009.583-.117.77-.322.196-.215.294-.476.294-.784v-.098h.14Zm.63-2.226v1.484h-.14v-.126c0-.411-.112-.733-.336-.966-.215-.233-.527-.355-.938-.364v-.028h1.414Zm0-.742v.336l-1.47-.126c.271 0 .555-.023.854-.07.299-.056.504-.103.616-.14Zm-5.418 7.728.07.882h-1.036v-.14h.182c.205 0 .378-.07.518-.21a.78.78 0 0 0 .238-.532h.028Zm0-6.636h-.028a.744.744 0 0 0-.238-.532.704.704 0 0 0-.518-.21h-.182v-.14h1.036l-.07.882Zm10.968 7.7-4.116-8.512h2.38l2.548 5.936-.812 2.576Zm0 0-.056-1.638 3.038-6.902h1.022l-3.234 6.832c-.018.047-.06.145-.126.294-.065.14-.135.303-.21.49-.074.177-.144.35-.21.518a1.944 1.944 0 0 0-.098.406h-.126Zm2.59-7.658c.103-.252.089-.448-.042-.588a.556.556 0 0 0-.434-.21h-.098v-.126h2.786v.14h-.112c-.186 0-.382.061-.588.182-.205.112-.378.313-.518.602h-.994Zm-3.962 0h-2.324c-.14-.289-.312-.49-.518-.602a1.091 1.091 0 0 0-.574-.182h-.098v-.14h4.102v.126h-.112c-.149 0-.289.07-.42.21-.13.14-.149.336-.056.588Zm9.29-.924v8.4h-2.016v-8.4h2.016Zm3.276 7.84.322.56h-3.626v-.56h3.304Zm-.476-3.878v.56h-2.828v-.56h2.828Zm.63-3.962v.56h-3.458v-.56h3.458Zm.742 5.824-.532 2.576h-2.422l.434-.56c.402 0 .756-.079 1.064-.238.318-.168.588-.401.812-.7.224-.308.397-.667.518-1.078h.126Zm-1.372-1.33v1.232h-.14v-.112a1.07 1.07 0 0 0-.294-.77c-.186-.205-.443-.313-.77-.322v-.028h1.204Zm0-1.736v1.232h-1.204v-.028c.327-.009.584-.117.77-.322.196-.215.294-.476.294-.784v-.098h.14Zm.63-2.226v1.484h-.14v-.126c0-.411-.112-.733-.336-.966-.214-.233-.527-.355-.938-.364v-.028h1.414Zm0-.742v.336l-1.47-.126c.271 0 .556-.023.854-.07.299-.056.504-.103.616-.14Zm-5.418 7.728.07.882h-1.036v-.14h.182c.206 0 .378-.07.518-.21a.775.775 0 0 0 .238-.532h.028Zm0-6.636h-.028a.74.74 0 0 0-.238-.532.703.703 0 0 0-.518-.21h-.182v-.14h1.036l-.07.882Zm9.836-.882v8.4h-2.016v-8.4h2.016Zm3.262 7.84.336.56h-3.626v-.56h3.29Zm.924-2.016L202.4 127h-2.422l.434-.56c.401 0 .756-.079 1.064-.238.317-.168.588-.401.812-.7.224-.308.397-.667.518-1.078h.14Zm-6.174 1.694.07.882h-1.036v-.14h.182c.205 0 .378-.07.518-.21a.78.78 0 0 0 .238-.532h.028Zm1.96-6.636v-.882h.966v.14h-.168a.751.751 0 0 0-.532.21.744.744 0 0 0-.238.532h-.028Zm-1.96 0h-.028a.744.744 0 0 0-.238-.532.751.751 0 0 0-.532-.21h-.168v-.14h.966v.882Zm11.824-1.064c.747 0 1.423.103 2.03.308a4.414 4.414 0 0 1 1.568.868 3.82 3.82 0 0 1 1.008 1.386c.243.541.364 1.153.364 1.834 0 .672-.121 1.279-.364 1.82a3.848 3.848 0 0 1-1.008 1.372 4.584 4.584 0 0 1-1.568.882c-.607.196-1.283.294-2.03.294a6.536 6.536 0 0 1-2.016-.294 4.584 4.584 0 0 1-1.568-.882 3.848 3.848 0 0 1-1.008-1.372c-.233-.541-.35-1.148-.35-1.82 0-.681.117-1.293.35-1.834a3.82 3.82 0 0 1 1.008-1.386 4.414 4.414 0 0 1 1.568-.868 6.27 6.27 0 0 1 2.016-.308Zm0 8.218c.569 0 1.064-.154 1.484-.462.429-.317.756-.761.98-1.33.233-.569.35-1.246.35-2.03 0-.793-.117-1.475-.35-2.044-.224-.579-.551-1.022-.98-1.33-.42-.317-.915-.476-1.484-.476-.56 0-1.05.159-1.47.476-.42.308-.747.751-.98 1.33-.233.569-.35 1.251-.35 2.044 0 .784.117 1.461.35 2.03.233.569.56 1.013.98 1.33.42.308.91.462 1.47.462Zm8.563-8.036h1.344c.756 0 1.367.103 1.834.308.466.205.816.485 1.05.84.233.345.359.737.378 1.176.018.551-.094 1.031-.336 1.442a2.366 2.366 0 0 1-.952.938c-.402.215-.84.313-1.316.294-.476-.028-.948-.196-1.414-.504v-.126h.14c.102 0 .228-.014.378-.042.149-.037.303-.103.462-.196a1.64 1.64 0 0 0 .476-.42c.149-.187.266-.439.35-.756.028-.112.046-.233.056-.364.018-.14.023-.261.014-.364-.01-.513-.164-.919-.462-1.218-.29-.308-.696-.462-1.218-.462h-.658l-.028-.126a3.182 3.182 0 0 0-.07-.28l-.028-.14Zm.154 0v8.4h-2.016v-8.4h2.016Zm-1.988 7.518.056.882h-1.008v-.14h.168c.205 0 .378-.07.518-.21a.784.784 0 0 0 .238-.532h.028Zm0-6.65h-.028a.701.701 0 0 0-.238-.518.704.704 0 0 0-.518-.21h-.182v-.14h1.022l-.056.868Zm1.96 6.65h.028a.806.806 0 0 0 .224.532c.14.14.317.21.532.21h.168v.14h-1.022l.07-.882Zm8.231-7.518v8.4H223.5v-8.4h2.016Zm3.276 7.84.322.56h-3.626v-.56h3.304Zm-.476-3.878v.56h-2.828v-.56h2.828Zm.63-3.962v.56h-3.458v-.56h3.458Zm.742 5.824-.532 2.576h-2.422l.434-.56c.401 0 .756-.079 1.064-.238.317-.168.588-.401.812-.7.224-.308.397-.667.518-1.078h.126Zm-1.372-1.33v1.232h-.14v-.112a1.07 1.07 0 0 0-.294-.77c-.187-.205-.443-.313-.77-.322v-.028h1.204Zm0-1.736v1.232h-1.204v-.028c.327-.009.583-.117.77-.322.196-.215.294-.476.294-.784v-.098h.14Zm.63-2.226v1.484h-.14v-.126c0-.411-.112-.733-.336-.966-.215-.233-.527-.355-.938-.364v-.028h1.414Zm0-.742v.336l-1.47-.126c.271 0 .555-.023.854-.07.299-.056.504-.103.616-.14Zm-5.418 7.728.07.882h-1.036v-.14h.182c.205 0 .378-.07.518-.21a.78.78 0 0 0 .238-.532h.028Zm0-6.636h-.028a.744.744 0 0 0-.238-.532.704.704 0 0 0-.518-.21h-.182v-.14h1.036l-.07.882Zm9.78-.882h1.512c.382 0 .756.042 1.12.126.364.075.69.201.98.378.289.168.518.401.686.7.177.289.266.653.266 1.092 0 .327-.07.653-.21.98a2.07 2.07 0 0 1-.63.826c-.28.233-.649.387-1.106.462.27.084.527.247.77.49.252.243.448.471.588.686.037.075.102.196.196.364.093.159.21.345.35.56.149.205.303.42.462.644.186.252.35.448.49.588.14.131.284.224.434.28.149.056.322.084.518.084v.14h-1.176c-.504 0-.934-.037-1.288-.112a2.307 2.307 0 0 1-.91-.406 3.282 3.282 0 0 1-.7-.826 5.096 5.096 0 0 1-.266-.434l-.28-.532a7.873 7.873 0 0 1-.252-.518 3.522 3.522 0 0 1-.14-.42c-.122-.299-.262-.513-.42-.644-.15-.14-.29-.21-.42-.21v-.126h.35c.196 0 .387-.033.574-.098.196-.075.373-.21.532-.406.158-.205.275-.504.35-.896.018-.056.032-.135.042-.238.018-.103.023-.219.014-.35-.019-.345-.084-.621-.196-.826a1.132 1.132 0 0 0-.392-.476 1.357 1.357 0 0 0-.49-.224 1.505 1.505 0 0 0-.42-.07 4.44 4.44 0 0 0-.49 0c-.14 0-.248-.005-.322-.014-.01 0-.024-.047-.042-.14l-.056-.294-.028-.14Zm.14 0v8.4h-2.03v-8.4h2.03Zm-1.988 7.518.056.882h-1.008v-.14h.168c.205 0 .378-.07.518-.21a.784.784 0 0 0 .238-.532h.028Zm0-6.65h-.028a.701.701 0 0 0-.238-.518.687.687 0 0 0-.504-.21h-.182v-.14h1.008l-.056.868Zm1.96 6.65h.028c0 .233.079.415.238.546a.85.85 0 0 0 .532.196h.14v.14h-1.008l.07-.882Z"/>
  <path fill="#939393" d="M163.36 55.16c.453.267.96.507 1.52.72.56.24 1.093.4 1.6.48.533.107 1.107.16 1.72.16.64 0 1.293-.08 1.96-.24l.16.4c-1.493.72-3 1.08-4.52 1.08-3.493 0-7.053-1.933-10.68-5.8l-18.96-20.12V48.2c0 .667.24 1.24.72 1.72.48.453 1.053.68 1.72.68h.76v.4h-12.12v-.4h.72c.693 0 1.28-.227 1.76-.68.48-.48.72-1.067.72-1.76V25.72c-1.307-1.493-2.293-2.533-2.96-3.12a31.496 31.496 0 0 0-1.76-1.52c-.533-.4-1.04-.733-1.52-1-1.12-.64-2.013-1.013-2.68-1.12a12.68 12.68 0 0 0-1.92-.16c-.613 0-1.267.12-1.96.36l-.16-.4c1.467-.853 2.973-1.28 4.52-1.28 3.36 0 6.92 2 10.68 6l17.88 19V25.84c-.027-.693-.28-1.267-.76-1.72a2.347 2.347 0 0 0-1.72-.72h-.72V23h12.12v.4h-.76c-.667 0-1.24.24-1.72.72a2.357 2.357 0 0 0-.76 1.68v22.76l.64.64c.16.16.4.44.72.84.347.373.653.693.92.96.267.293.6.653 1 1.08.427.427.813.8 1.16 1.12.373.32.8.667 1.28 1.04.507.373.973.68 1.4.92Zm26.769-4.56h.36v.4h-12.76v-.4h.36c.587 0 1.014-.173 1.28-.52.294-.373.44-.72.44-1.04 0-.32-.066-.64-.2-.96l-1.96-4.92h-9.36l-2.08 4.92c-.133.347-.2.68-.2 1 0 .293.134.627.4 1 .294.347.747.52 1.36.52h.32v.4h-8.56v-.4h.36c.614 0 1.227-.187 1.84-.56.614-.373 1.12-.933 1.52-1.68l9.24-20.92c1.254-2.64 1.92-4.387 2-5.24h.36l11.88 26.08c.4.773.907 1.36 1.52 1.76.614.373 1.24.56 1.88.56Zm-21.16-9.12h8l-3.88-9.84-4.12 9.84Zm37.304 10.04c-5.147 0-9.187-1.293-12.12-3.88-2.933-2.587-4.4-6.133-4.4-10.64 0-4.507 1.453-8.053 4.36-10.64 2.907-2.613 6.893-3.92 11.96-3.92 3.867 0 7.187.72 9.96 2.16l.08 6.88h-.32c-1.36-4.907-4.467-7.36-9.32-7.36-3.147 0-5.64 1.147-7.48 3.44-1.813 2.267-2.72 5.373-2.72 9.32s.867 7.08 2.6 9.4c1.76 2.32 4.133 3.52 7.12 3.6 3.093 0 5.453-.773 7.08-2.32 1.653-1.6 2.8-4.347 3.44-8.24h.32l.4 6.88c-2.16 3.573-5.813 5.347-10.96 5.32Zm33.934-.92c.693 0 1.227-.173 1.6-.52.613-.613.933-1.267.96-1.96v-10.2h-12.96v10.16c0 .693.253 1.293.76 1.8a2.53 2.53 0 0 0 1.8.72h.48l.04.4h-12.16v-.4h.52c.693 0 1.28-.24 1.76-.72.507-.507.773-1.107.8-1.8v-22.2a2.47 2.47 0 0 0-.8-1.76 2.395 2.395 0 0 0-1.76-.72h-.52V23h12.16l-.04.4h-.48a2.53 2.53 0 0 0-1.8.72 2.33 2.33 0 0 0-.76 1.76V36.2h12.96V25.88a2.47 2.47 0 0 0-.8-1.76 2.395 2.395 0 0 0-1.76-.72h-.52V23h12.16v.4h-.52c-.693 0-1.293.253-1.8.76a2.33 2.33 0 0 0-.76 1.76v22.16c0 .693.253 1.293.76 1.8a2.53 2.53 0 0 0 1.8.72h.52v.4h-12.16v-.4h.52Zm29.995-28.16c4.933 0 8.853 1.307 11.76 3.92 2.906 2.613 4.36 6.16 4.36 10.64s-1.454 8.027-4.36 10.64c-2.907 2.613-6.827 3.92-11.76 3.92-4.934 0-8.854-1.307-11.76-3.92-2.907-2.613-4.36-6.16-4.36-10.64 0-2.96.653-5.533 1.96-7.72 1.333-2.213 3.213-3.907 5.64-5.08 2.426-1.173 5.266-1.76 8.52-1.76Zm-7 24c1.733 2.293 4.066 3.44 7 3.44 2.933 0 5.253-1.147 6.96-3.44 1.733-2.32 2.6-5.467 2.6-9.44 0-2.613-.387-4.893-1.16-6.84-.774-1.947-1.88-3.44-3.32-4.48-1.44-1.04-3.134-1.56-5.08-1.56-2.934 0-5.267 1.16-7 3.48-1.707 2.293-2.56 5.427-2.56 9.4 0 3.973.853 7.12 2.56 9.44ZM148.64 83.88c0 1.253-.32 2.373-.96 3.36-.613.987-1.413 1.667-2.4 2.04 3.093.16 5.347 1.373 6.76 3.64.72 1.147 1.08 2.56 1.08 4.24 0 1.68-.653 3.213-1.96 4.6-1.28 1.387-2.92 2.373-4.92 2.96-2 .587-4.107.88-6.32.88-5.52 0-9.467-1.467-11.84-4.4-1.52-1.867-2.28-4.387-2.28-7.56 0-.533.027-1.067.08-1.6l.4-.04c.187 4.587 1.827 7.867 4.92 9.84V79.88c-.027-.987-.467-1.707-1.32-2.16a2.455 2.455 0 0 0-1.24-.32h-.52V77h10.16c2.96 0 5.427.6 7.4 1.8 1.973 1.173 2.96 2.867 2.96 5.08Zm-10.32 19.84c2.48 0 4.413-.653 5.8-1.96 1.413-1.307 2.12-3.027 2.12-5.16 0-1.333-.253-2.453-.76-3.36-.48-.933-1.12-1.627-1.92-2.08-1.467-.88-3.133-1.32-5-1.32v-.36c.853 0 1.573-.307 2.16-.92 1.013-1.067 1.52-2.52 1.52-4.36 0-1.84-.413-3.2-1.24-4.08-.8-.88-2.067-1.347-3.8-1.4v24.96c.373.027.747.04 1.12.04Zm17.38.88c.693 0 1.28-.24 1.76-.72.507-.507.773-1.107.8-1.8V79.8c-.08-.933-.52-1.627-1.32-2.08-.4-.213-.813-.32-1.24-.32h-.52V77h15.32c.827 0 1.733-.08 2.72-.24.987-.16 1.68-.32 2.08-.48v7h-.4v-.48c0-1.2-.36-2.16-1.08-2.88-.693-.747-1.64-1.147-2.84-1.2h-6.72v11.64h5.28c.987-.027 1.8-.36 2.44-1 .64-.667.96-1.48.96-2.44v-.36h.4v9.24h-.4v-.32c0-1.333-.533-2.32-1.6-2.96a3.94 3.94 0 0 0-1.76-.48h-5.32v11.24h5.24c1.947 0 3.573-.56 4.88-1.68 1.333-1.12 2.32-2.707 2.96-4.76h.4L175.9 105h-20.72v-.4h.52Zm35.598-25.84h-1.84v23.32c.027.987.453 1.72 1.28 2.2.4.213.827.32 1.28.32h.52v.4h-12.16v-.4h.52c.96 0 1.693-.413 2.2-1.24.213-.373.333-.787.36-1.24v-22.2a2.47 2.47 0 0 0-.8-1.76 2.332 2.332 0 0 0-1.76-.76h-.52V77h13.72c2.587 0 4.773.56 6.56 1.68.907.56 1.627 1.347 2.16 2.36.533.987.8 2.12.8 3.4 0 1.253-.227 2.413-.68 3.48-.427 1.067-1.16 2-2.2 2.8-1.013.8-2.24 1.28-3.68 1.44 1.547.507 2.907 1.68 4.08 3.52 2.88 4.613 5.013 7.36 6.4 8.24.693.427 1.56.653 2.6.68v.4h-3.92c-2.267 0-4.16-.307-5.68-.92-1.52-.64-2.76-1.72-3.72-3.24-.48-.773-1.093-1.933-1.84-3.48-.747-1.573-1.24-2.693-1.48-3.36-.72-1.6-1.627-2.493-2.72-2.68v-.4h1.24c1.2 0 2.253-.36 3.16-1.08.933-.72 1.56-1.893 1.88-3.52.107-.56.16-1 .16-1.32 0-2.187-.44-3.76-1.32-4.72-.88-.987-2.013-1.493-3.4-1.52h-1.2Zm29.375 0h-1.84v23.32c.027.987.453 1.72 1.28 2.2.4.213.827.32 1.28.32h.52v.4h-12.16v-.4h.52c.96 0 1.693-.413 2.2-1.24.213-.373.333-.787.36-1.24v-22.2a2.47 2.47 0 0 0-.8-1.76 2.332 2.332 0 0 0-1.76-.76h-.52V77h13.72c2.587 0 4.773.56 6.56 1.68.907.56 1.627 1.347 2.16 2.36.533.987.8 2.12.8 3.4 0 1.253-.227 2.413-.68 3.48-.427 1.067-1.16 2-2.2 2.8-1.013.8-2.24 1.28-3.68 1.44 1.547.507 2.907 1.68 4.08 3.52 2.88 4.613 5.013 7.36 6.4 8.24.693.427 1.56.653 2.6.68v.4h-3.92c-2.267 0-4.16-.307-5.68-.92-1.52-.64-2.76-1.72-3.72-3.24-.48-.773-1.093-1.933-1.84-3.48-.747-1.573-1.24-2.693-1.48-3.36-.72-1.6-1.627-2.493-2.72-2.68v-.4h1.24c1.2 0 2.253-.36 3.16-1.08.933-.72 1.56-1.893 1.88-3.52.107-.56.16-1 .16-1.32 0-2.187-.44-3.76-1.32-4.72-.88-.987-2.013-1.493-3.4-1.52h-1.2Zm18.855 25.84c.693 0 1.28-.24 1.76-.72.507-.507.773-1.107.8-1.8v-22.2a2.47 2.47 0 0 0-.8-1.76 2.395 2.395 0 0 0-1.76-.72h-.52V77h12.16l-.04.4h-.48a2.53 2.53 0 0 0-1.8.72 2.33 2.33 0 0 0-.76 1.76v22.2c0 .693.253 1.293.76 1.8a2.53 2.53 0 0 0 1.8.72h.48l.04.4h-12.16v-.4h.52Zm29.43-27.6c4.72 0 8.453 1.253 11.2 3.76 2.746 2.507 4.12 5.92 4.12 10.24s-1.374 7.733-4.12 10.24c-2.747 2.507-6.48 3.76-11.2 3.76h-14.52v-.4h.52c.693 0 1.28-.24 1.76-.72.506-.507.773-1.107.8-1.8v-22.4a2.486 2.486 0 0 0-.84-1.6 2.42 2.42 0 0 0-1.72-.68h-.52V77h14.52Zm-.52 26.32c1.92 0 3.573-.493 4.96-1.48 1.413-1.013 2.493-2.44 3.24-4.28.746-1.867 1.12-4.053 1.12-6.56 0-3.787-.84-6.787-2.52-9-1.654-2.213-3.92-3.32-6.8-3.32h-4.92v24.64h4.92ZM313.72 77.4h-.56c-.8 0-1.56.227-2.28.68-.72.453-1.293 1-1.72 1.64l-7.88 12.56v9.8c0 .693.254 1.293.76 1.8a2.53 2.53 0 0 0 1.8.72h.48l.04.4H292.2v-.4h.52c.694 0 1.28-.24 1.76-.72.507-.48.774-1.067.8-1.76v-9.88l-7.64-12.56c-.4-.64-.973-1.173-1.72-1.6-.72-.453-1.466-.68-2.24-.68h-.56V77h13.24v.4h-.52c-.586 0-1.04.267-1.36.8-.16.293-.24.587-.24.88 0 .267.067.533.2.8l5.72 10.4 5.92-10.4c.16-.267.24-.533.24-.8a1.44 1.44 0 0 0-.28-.84c-.32-.56-.773-.84-1.36-.84h-.48V77h9.52v.4Z"/>
  <defs>
    <pattern id="a" width="1" height="1" patternContentUnits="objectBoundingBox">
      <use xlink:href="#b" transform="scale(.00195)"/>
    </pattern>
  </defs>
</svg>
