<svg xmlns="http://www.w3.org/2000/svg" xmlns:xlink="http://www.w3.org/1999/xlink" width="314" height="132" fill="none" viewBox="0 0 314 132">
  <path fill="url(#a)" d="M0 0h132v132H0z"/>
  <path fill="#939393" d="M163.36 55.16c.453.267.96.507 1.52.72.56.24 1.093.4 1.6.48.533.107 1.107.16 1.72.16.64 0 1.293-.08 1.96-.24l.16.4c-1.493.72-3 1.08-4.52 1.08-3.493 0-7.053-1.933-10.68-5.8l-18.96-20.12V48.2c0 .667.24 1.24.72 1.72.48.453 1.053.68 1.72.68h.76v.4h-12.12v-.4h.72c.693 0 1.28-.227 1.76-.68.48-.48.72-1.067.72-1.76V25.72c-1.307-1.493-2.293-2.533-2.96-3.12a31.496 31.496 0 0 0-1.76-1.52c-.533-.4-1.04-.733-1.52-1-1.12-.64-2.013-1.013-2.68-1.12a12.68 12.68 0 0 0-1.92-.16c-.613 0-1.267.12-1.96.36l-.16-.4c1.467-.853 2.973-1.28 4.52-1.28 3.36 0 6.92 2 10.68 6l17.88 19V25.84c-.027-.693-.28-1.267-.76-1.72a2.347 2.347 0 0 0-1.72-.72h-.72V23h12.12v.4h-.76c-.667 0-1.24.24-1.72.72a2.357 2.357 0 0 0-.76 1.68v22.76l.64.64c.16.16.4.44.72.84.347.373.653.693.92.96.267.293.6.653 1 1.08.427.427.813.8 1.16 1.12.373.32.8.667 1.28 1.04.507.373.973.68 1.4.92Zm26.769-4.56h.36v.4h-12.76v-.4h.36c.587 0 1.014-.173 1.28-.52.294-.373.44-.72.44-1.04 0-.32-.066-.64-.2-.96l-1.96-4.92h-9.36l-2.08 4.92c-.133.347-.2.68-.2 1 0 .293.134.627.4 1 .294.347.747.52 1.36.52h.32v.4h-8.56v-.4h.36c.614 0 1.227-.187 1.84-.56.614-.373 1.12-.933 1.52-1.68l9.24-20.92c1.254-2.64 1.92-4.387 2-5.24h.36l11.88 26.08c.4.773.907 1.36 1.52 1.76.614.373 1.24.56 1.88.56Zm-21.16-9.12h8l-3.88-9.84-4.12 9.84Zm37.304 10.04c-5.147 0-9.187-1.293-12.12-3.88-2.933-2.587-4.4-6.133-4.4-10.64 0-4.507 1.453-8.053 4.36-10.64 2.907-2.613 6.893-3.92 11.96-3.92 3.867 0 7.187.72 9.96 2.16l.08 6.88h-.32c-1.36-4.907-4.467-7.36-9.32-7.36-3.147 0-5.64 1.147-7.48 3.44-1.813 2.267-2.72 5.373-2.72 9.32s.867 7.08 2.6 9.4c1.76 2.32 4.133 3.52 7.12 3.6 3.093 0 5.453-.773 7.08-2.32 1.653-1.6 2.8-4.347 3.44-8.24h.32l.4 6.88c-2.16 3.573-5.813 5.347-10.96 5.32Zm33.934-.92c.693 0 1.227-.173 1.6-.52.613-.613.933-1.267.96-1.96v-10.2h-12.96v10.16c0 .693.253 1.293.76 1.8a2.53 2.53 0 0 0 1.8.72h.48l.04.4h-12.16v-.4h.52c.693 0 1.28-.24 1.76-.72.507-.507.773-1.107.8-1.8v-22.2a2.47 2.47 0 0 0-.8-1.76 2.395 2.395 0 0 0-1.76-.72h-.52V23h12.16l-.04.4h-.48a2.53 2.53 0 0 0-1.8.72 2.33 2.33 0 0 0-.76 1.76V36.2h12.96V25.88a2.47 2.47 0 0 0-.8-1.76 2.395 2.395 0 0 0-1.76-.72h-.52V23h12.16v.4h-.52c-.693 0-1.293.253-1.8.76a2.33 2.33 0 0 0-.76 1.76v22.16c0 .693.253 1.293.76 1.8a2.53 2.53 0 0 0 1.8.72h.52v.4h-12.16v-.4h.52Zm29.995-28.16c4.933 0 8.853 1.307 11.76 3.92 2.906 2.613 4.36 6.16 4.36 10.64s-1.454 8.027-4.36 10.64c-2.907 2.613-6.827 3.92-11.76 3.92-4.934 0-8.854-1.307-11.76-3.92-2.907-2.613-4.36-6.16-4.36-10.64 0-2.96.653-5.533 1.96-7.72 1.333-2.213 3.213-3.907 5.64-5.08 2.426-1.173 5.266-1.76 8.52-1.76Zm-7 24c1.733 2.293 4.066 3.44 7 3.44 2.933 0 5.253-1.147 6.96-3.44 1.733-2.32 2.6-5.467 2.6-9.44 0-2.613-.387-4.893-1.16-6.84-.774-1.947-1.88-3.44-3.32-4.48-1.44-1.04-3.134-1.56-5.08-1.56-2.934 0-5.267 1.16-7 3.48-1.707 2.293-2.56 5.427-2.56 9.4 0 3.973.853 7.12 2.56 9.44ZM148.64 83.88c0 1.253-.32 2.373-.96 3.36-.613.987-1.413 1.667-2.4 2.04 3.093.16 5.347 1.373 6.76 3.64.72 1.147 1.08 2.56 1.08 4.24 0 1.68-.653 3.213-1.96 4.6-1.28 1.387-2.92 2.373-4.92 2.96-2 .587-4.107.88-6.32.88-5.52 0-9.467-1.467-11.84-4.4-1.52-1.867-2.28-4.387-2.28-7.56 0-.533.027-1.067.08-1.6l.4-.04c.187 4.587 1.827 7.867 4.92 9.84V79.88c-.027-.987-.467-1.707-1.32-2.16a2.455 2.455 0 0 0-1.24-.32h-.52V77h10.16c2.96 0 5.427.6 7.4 1.8 1.973 1.173 2.96 2.867 2.96 5.08Zm-10.32 19.84c2.48 0 4.413-.653 5.8-1.96 1.413-1.307 2.12-3.027 2.12-5.16 0-1.333-.253-2.453-.76-3.36-.48-.933-1.12-1.627-1.92-2.08-1.467-.88-3.133-1.32-5-1.32v-.36c.853 0 1.573-.307 2.16-.92 1.013-1.067 1.52-2.52 1.52-4.36 0-1.84-.413-3.2-1.24-4.08-.8-.88-2.067-1.347-3.8-1.4v24.96c.373.027.747.04 1.12.04Zm17.38.88c.693 0 1.28-.24 1.76-.72.507-.507.773-1.107.8-1.8V79.8c-.08-.933-.52-1.627-1.32-2.08-.4-.213-.813-.32-1.24-.32h-.52V77h15.32c.827 0 1.733-.08 2.72-.24.987-.16 1.68-.32 2.08-.48v7h-.4v-.48c0-1.2-.36-2.16-1.08-2.88-.693-.747-1.64-1.147-2.84-1.2h-6.72v11.64h5.28c.987-.027 1.8-.36 2.44-1 .64-.667.96-1.48.96-2.44v-.36h.4v9.24h-.4v-.32c0-1.333-.533-2.32-1.6-2.96a3.94 3.94 0 0 0-1.76-.48h-5.32v11.24h5.24c1.947 0 3.573-.56 4.88-1.68 1.333-1.12 2.32-2.707 2.96-4.76h.4L175.9 105h-20.72v-.4h.52Zm35.598-25.84h-1.84v23.32c.027.987.453 1.72 1.28 2.2.4.213.827.32 1.28.32h.52v.4h-12.16v-.4h.52c.96 0 1.693-.413 2.2-1.24.213-.373.333-.787.36-1.24v-22.2a2.47 2.47 0 0 0-.8-1.76 2.332 2.332 0 0 0-1.76-.76h-.52V77h13.72c2.587 0 4.773.56 6.56 1.68.907.56 1.627 1.347 2.16 2.36.533.987.8 2.12.8 3.4 0 1.253-.227 2.413-.68 3.48-.427 1.067-1.16 2-2.2 2.8-1.013.8-2.24 1.28-3.68 1.44 1.547.507 2.907 1.68 4.08 3.52 2.88 4.613 5.013 7.36 6.4 8.24.693.427 1.56.653 2.6.68v.4h-3.92c-2.267 0-4.16-.307-5.68-.92-1.52-.64-2.76-1.72-3.72-3.24-.48-.773-1.093-1.933-1.84-3.48-.747-1.573-1.24-2.693-1.48-3.36-.72-1.6-1.627-2.493-2.72-2.68v-.4h1.24c1.2 0 2.253-.36 3.16-1.08.933-.72 1.56-1.893 1.88-3.52.107-.56.16-1 .16-1.32 0-2.187-.44-3.76-1.32-4.72-.88-.987-2.013-1.493-3.4-1.52h-1.2Zm29.375 0h-1.84v23.32c.027.987.453 1.72 1.28 2.2.4.213.827.32 1.28.32h.52v.4h-12.16v-.4h.52c.96 0 1.693-.413 2.2-1.24.213-.373.333-.787.36-1.24v-22.2a2.47 2.47 0 0 0-.8-1.76 2.332 2.332 0 0 0-1.76-.76h-.52V77h13.72c2.587 0 4.773.56 6.56 1.68.907.56 1.627 1.347 2.16 2.36.533.987.8 2.12.8 3.4 0 1.253-.227 2.413-.68 3.48-.427 1.067-1.16 2-2.2 2.8-1.013.8-2.24 1.28-3.68 1.44 1.547.507 2.907 1.68 4.08 3.52 2.88 4.613 5.013 7.36 6.4 8.24.693.427 1.56.653 2.6.68v.4h-3.92c-2.267 0-4.16-.307-5.68-.92-1.52-.64-2.76-1.72-3.72-3.24-.48-.773-1.093-1.933-1.84-3.48-.747-1.573-1.24-2.693-1.48-3.36-.72-1.6-1.627-2.493-2.72-2.68v-.4h1.24c1.2 0 2.253-.36 3.16-1.08.933-.72 1.56-1.893 1.88-3.52.107-.56.16-1 .16-1.32 0-2.187-.44-3.76-1.32-4.72-.88-.987-2.013-1.493-3.4-1.52h-1.2Zm18.855 25.84c.693 0 1.28-.24 1.76-.72.507-.507.773-1.107.8-1.8v-22.2a2.47 2.47 0 0 0-.8-1.76 2.395 2.395 0 0 0-1.76-.72h-.52V77h12.16l-.04.4h-.48a2.53 2.53 0 0 0-1.8.72 2.33 2.33 0 0 0-.76 1.76v22.2c0 .693.253 1.293.76 1.8a2.53 2.53 0 0 0 1.8.72h.48l.04.4h-12.16v-.4h.52Zm29.43-27.6c4.72 0 8.453 1.253 11.2 3.76 2.746 2.507 4.12 5.92 4.12 10.24s-1.374 7.733-4.12 10.24c-2.747 2.507-6.48 3.76-11.2 3.76h-14.52v-.4h.52c.693 0 1.28-.24 1.76-.72.506-.507.773-1.107.8-1.8v-22.4a2.486 2.486 0 0 0-.84-1.6 2.42 2.42 0 0 0-1.72-.68h-.52V77h14.52Zm-.52 26.32c1.92 0 3.573-.493 4.96-1.48 1.413-1.013 2.493-2.44 3.24-4.28.746-1.867 1.12-4.053 1.12-6.56 0-3.787-.84-6.787-2.52-9-1.654-2.213-3.92-3.32-6.8-3.32h-4.92v24.64h4.92ZM313.72 77.4h-.56c-.8 0-1.56.227-2.28.68-.72.453-1.293 1-1.72 1.64l-7.88 12.56v9.8c0 .693.254 1.293.76 1.8a2.53 2.53 0 0 0 1.8.72h.48l.04.4H292.2v-.4h.52c.694 0 1.28-.24 1.76-.72.507-.48.774-1.067.8-1.76v-9.88l-7.64-12.56c-.4-.64-.973-1.173-1.72-1.6-.72-.453-1.466-.68-2.24-.68h-.56V77h13.24v.4h-.52c-.586 0-1.04.267-1.36.8-.16.293-.24.587-.24.88 0 .267.067.533.2.8l5.72 10.4 5.92-10.4c.16-.267.24-.533.24-.8a1.44 1.44 0 0 0-.28-.84c-.32-.56-.773-.84-1.36-.84h-.48V77h9.52v.4Z"/>
  <defs>
    <pattern id="a" width="1" height="1" patternContentUnits="objectBoundingBox">
      <use xlink:href="#b" transform="scale(.00195)"/>
    </pattern>
  </defs>
</svg>
